<svg xmlns="http://www.w3.org/2000/svg" xmlns:xlink="http://www.w3.org/1999/xlink" width="500" zoomAndPan="magnify" viewBox="0 0 375 374.999991" height="500" preserveAspectRatio="xMidYMid meet" version="1.0"><defs><clipPath id="f0017566e4"><path d="M 375 75 L 375 300 C 375 319.890625 367.097656 338.96875 353.03125 353.03125 C 338.96875 367.097656 319.890625 375 300 375 L 75 375 C 55.109375 375 36.03125 367.097656 21.96875 353.03125 C 7.902344 338.96875 0 319.890625 0 300 L 0 75 C 0 33.578125 33.578125 0 75 0 L 300 0 C 319.890625 0 338.96875 7.902344 353.03125 21.96875 C 367.097656 36.03125 375 55.109375 375 75 Z M 375 75 " clip-rule="nonzero"/></clipPath><clipPath id="cdcd7d5b1f"><path d="M 0 0 L 375 0 L 375 375 L 0 375 Z M 0 0 " clip-rule="nonzero"/></clipPath><clipPath id="ee58776734"><path d="M 375 75 L 375 300 C 375 319.890625 367.097656 338.96875 353.03125 353.03125 C 338.96875 367.097656 319.890625 375 300 375 L 75 375 C 55.109375 375 36.03125 367.097656 21.96875 353.03125 C 7.902344 338.96875 0 319.890625 0 300 L 0 75 C 0 33.578125 33.578125 0 75 0 L 300 0 C 319.890625 0 338.96875 7.902344 353.03125 21.96875 C 367.097656 36.03125 375 55.109375 375 75 Z M 375 75 " clip-rule="nonzero"/></clipPath><linearGradient x1="0" gradientTransform="matrix(1.464844, 0, 0, 1.464844, 0.0000045, 0)" y1="0" x2="256" gradientUnits="userSpaceOnUse" y2="256" id="c1371e1118"><stop stop-opacity="1" stop-color="rgb(7.839966%, 100%, 0%)" offset="0"/><stop stop-opacity="1" stop-color="rgb(8.184814%, 100%, 0.0869751%)" offset="0.00390625"/><stop stop-opacity="1" stop-color="rgb(8.529663%, 100%, 0.17395%)" offset="0.0078125"/><stop stop-opacity="1" stop-color="rgb(8.874512%, 100%, 0.260925%)" offset="0.0117188"/><stop stop-opacity="1" stop-color="rgb(9.21936%, 100%, 0.349426%)" offset="0.015625"/><stop stop-opacity="1" stop-color="rgb(9.564209%, 100%, 0.436401%)" offset="0.0195312"/><stop stop-opacity="1" stop-color="rgb(9.909058%, 100%, 0.523376%)" offset="0.0234375"/><stop stop-opacity="1" stop-color="rgb(10.253906%, 100%, 0.610352%)" offset="0.0273438"/><stop stop-opacity="1" stop-color="rgb(10.598755%, 100%, 0.698853%)" offset="0.03125"/><stop stop-opacity="1" stop-color="rgb(10.943604%, 100%, 0.785828%)" offset="0.0351562"/><stop stop-opacity="1" stop-color="rgb(11.288452%, 100%, 0.872803%)" offset="0.0390625"/><stop stop-opacity="1" stop-color="rgb(11.633301%, 100%, 0.959778%)" offset="0.0429688"/><stop stop-opacity="1" stop-color="rgb(11.979675%, 100%, 1.048279%)" offset="0.046875"/><stop stop-opacity="1" stop-color="rgb(12.324524%, 100%, 1.135254%)" offset="0.0507812"/><stop stop-opacity="1" stop-color="rgb(12.669373%, 100%, 1.222229%)" offset="0.0546875"/><stop stop-opacity="1" stop-color="rgb(13.014221%, 100%, 1.309204%)" offset="0.0585938"/><stop stop-opacity="1" stop-color="rgb(13.35907%, 100%, 1.397705%)" offset="0.0625"/><stop stop-opacity="1" stop-color="rgb(13.703918%, 100%, 1.48468%)" offset="0.0664062"/><stop stop-opacity="1" stop-color="rgb(14.048767%, 100%, 1.571655%)" offset="0.0703125"/><stop stop-opacity="1" stop-color="rgb(14.393616%, 100%, 1.65863%)" offset="0.0742188"/><stop stop-opacity="1" stop-color="rgb(14.738464%, 100%, 1.747131%)" offset="0.078125"/><stop stop-opacity="1" stop-color="rgb(15.083313%, 100%, 1.834106%)" offset="0.0820312"/><stop stop-opacity="1" stop-color="rgb(15.429688%, 100%, 1.922607%)" offset="0.0859375"/><stop stop-opacity="1" stop-color="rgb(15.774536%, 100%, 2.009583%)" offset="0.0898438"/><stop stop-opacity="1" stop-color="rgb(16.119385%, 100%, 2.096558%)" offset="0.09375"/><stop stop-opacity="1" stop-color="rgb(16.464233%, 100%, 2.183533%)" offset="0.0976562"/><stop stop-opacity="1" stop-color="rgb(16.809082%, 100%, 2.272034%)" offset="0.101562"/><stop stop-opacity="1" stop-color="rgb(17.153931%, 100%, 2.359009%)" offset="0.105469"/><stop stop-opacity="1" stop-color="rgb(17.498779%, 100%, 2.445984%)" offset="0.109375"/><stop stop-opacity="1" stop-color="rgb(17.843628%, 100%, 2.532959%)" offset="0.113281"/><stop stop-opacity="1" stop-color="rgb(18.188477%, 100%, 2.62146%)" offset="0.117188"/><stop stop-opacity="1" stop-color="rgb(18.533325%, 100%, 2.708435%)" offset="0.121094"/><stop stop-opacity="1" stop-color="rgb(18.8797%, 100%, 2.79541%)" offset="0.125"/><stop stop-opacity="1" stop-color="rgb(19.224548%, 100%, 2.882385%)" offset="0.128906"/><stop stop-opacity="1" stop-color="rgb(19.569397%, 100%, 2.970886%)" offset="0.132812"/><stop stop-opacity="1" stop-color="rgb(19.914246%, 100%, 3.057861%)" offset="0.136719"/><stop stop-opacity="1" stop-color="rgb(20.259094%, 100%, 3.144836%)" offset="0.140625"/><stop stop-opacity="1" stop-color="rgb(20.603943%, 100%, 3.231812%)" offset="0.144531"/><stop stop-opacity="1" stop-color="rgb(20.948792%, 100%, 3.320312%)" offset="0.148438"/><stop stop-opacity="1" stop-color="rgb(21.29364%, 100%, 3.407288%)" offset="0.152344"/><stop stop-opacity="1" stop-color="rgb(21.638489%, 100%, 3.494263%)" offset="0.15625"/><stop stop-opacity="1" stop-color="rgb(21.983337%, 100%, 3.581238%)" offset="0.160156"/><stop stop-opacity="1" stop-color="rgb(22.329712%, 100%, 3.669739%)" offset="0.164062"/><stop stop-opacity="1" stop-color="rgb(22.674561%, 100%, 3.756714%)" offset="0.167969"/><stop stop-opacity="1" stop-color="rgb(23.019409%, 100%, 3.845215%)" offset="0.171875"/><stop stop-opacity="1" stop-color="rgb(23.364258%, 100%, 3.93219%)" offset="0.175781"/><stop stop-opacity="1" stop-color="rgb(23.709106%, 100%, 4.019165%)" offset="0.179688"/><stop stop-opacity="1" stop-color="rgb(24.053955%, 100%, 4.10614%)" offset="0.183594"/><stop stop-opacity="1" stop-color="rgb(24.398804%, 100%, 4.194641%)" offset="0.1875"/><stop stop-opacity="1" stop-color="rgb(24.743652%, 100%, 4.281616%)" offset="0.191406"/><stop stop-opacity="1" stop-color="rgb(25.088501%, 100%, 4.368591%)" offset="0.195312"/><stop stop-opacity="1" stop-color="rgb(25.43335%, 100%, 4.455566%)" offset="0.199219"/><stop stop-opacity="1" stop-color="rgb(25.778198%, 100%, 4.544067%)" offset="0.203125"/><stop stop-opacity="1" stop-color="rgb(26.123047%, 100%, 4.631042%)" offset="0.207031"/><stop stop-opacity="1" stop-color="rgb(26.469421%, 100%, 4.718018%)" offset="0.210938"/><stop stop-opacity="1" stop-color="rgb(26.81427%, 100%, 4.804993%)" offset="0.214844"/><stop stop-opacity="1" stop-color="rgb(27.159119%, 100%, 4.893494%)" offset="0.21875"/><stop stop-opacity="1" stop-color="rgb(27.503967%, 100%, 4.980469%)" offset="0.222656"/><stop stop-opacity="1" stop-color="rgb(27.848816%, 100%, 5.067444%)" offset="0.226562"/><stop stop-opacity="1" stop-color="rgb(28.193665%, 100%, 5.154419%)" offset="0.230469"/><stop stop-opacity="1" stop-color="rgb(28.538513%, 100%, 5.24292%)" offset="0.234375"/><stop stop-opacity="1" stop-color="rgb(28.883362%, 100%, 5.329895%)" offset="0.238281"/><stop stop-opacity="1" stop-color="rgb(29.22821%, 100%, 5.41687%)" offset="0.242188"/><stop stop-opacity="1" stop-color="rgb(29.573059%, 100%, 5.503845%)" offset="0.246094"/><stop stop-opacity="1" stop-color="rgb(29.919434%, 100%, 5.592346%)" offset="0.25"/><stop stop-opacity="1" stop-color="rgb(30.264282%, 100%, 5.679321%)" offset="0.253906"/><stop stop-opacity="1" stop-color="rgb(30.609131%, 100%, 5.767822%)" offset="0.257812"/><stop stop-opacity="1" stop-color="rgb(30.953979%, 100%, 5.854797%)" offset="0.261719"/><stop stop-opacity="1" stop-color="rgb(31.298828%, 100%, 5.941772%)" offset="0.265625"/><stop stop-opacity="1" stop-color="rgb(31.643677%, 100%, 6.028748%)" offset="0.269531"/><stop stop-opacity="1" stop-color="rgb(31.988525%, 100%, 6.117249%)" offset="0.273438"/><stop stop-opacity="1" stop-color="rgb(32.333374%, 100%, 6.204224%)" offset="0.277344"/><stop stop-opacity="1" stop-color="rgb(32.678223%, 100%, 6.291199%)" offset="0.28125"/><stop stop-opacity="1" stop-color="rgb(33.023071%, 100%, 6.378174%)" offset="0.285156"/><stop stop-opacity="1" stop-color="rgb(33.369446%, 100%, 6.466675%)" offset="0.289062"/><stop stop-opacity="1" stop-color="rgb(33.714294%, 100%, 6.55365%)" offset="0.292969"/><stop stop-opacity="1" stop-color="rgb(34.059143%, 100%, 6.640625%)" offset="0.296875"/><stop stop-opacity="1" stop-color="rgb(34.403992%, 100%, 6.7276%)" offset="0.300781"/><stop stop-opacity="1" stop-color="rgb(34.74884%, 100%, 6.816101%)" offset="0.304688"/><stop stop-opacity="1" stop-color="rgb(35.093689%, 100%, 6.903076%)" offset="0.308594"/><stop stop-opacity="1" stop-color="rgb(35.438538%, 100%, 6.990051%)" offset="0.3125"/><stop stop-opacity="1" stop-color="rgb(35.783386%, 100%, 7.077026%)" offset="0.316406"/><stop stop-opacity="1" stop-color="rgb(36.128235%, 100%, 7.165527%)" offset="0.320312"/><stop stop-opacity="1" stop-color="rgb(36.473083%, 100%, 7.252502%)" offset="0.324219"/><stop stop-opacity="1" stop-color="rgb(36.817932%, 100%, 7.339478%)" offset="0.328125"/><stop stop-opacity="1" stop-color="rgb(37.30011%, 100%, 7.36084%)" offset="0.332031"/><stop stop-opacity="1" stop-color="rgb(37.783813%, 100%, 7.383728%)" offset="0.335938"/><stop stop-opacity="1" stop-color="rgb(38.494873%, 100%, 7.296753%)" offset="0.339844"/><stop stop-opacity="1" stop-color="rgb(39.205933%, 100%, 7.209778%)" offset="0.34375"/><stop stop-opacity="1" stop-color="rgb(39.916992%, 100%, 7.122803%)" offset="0.347656"/><stop stop-opacity="1" stop-color="rgb(40.628052%, 100%, 7.035828%)" offset="0.351562"/><stop stop-opacity="1" stop-color="rgb(41.339111%, 100%, 6.947327%)" offset="0.355469"/><stop stop-opacity="1" stop-color="rgb(42.050171%, 100%, 6.860352%)" offset="0.359375"/><stop stop-opacity="1" stop-color="rgb(42.76123%, 100%, 6.773376%)" offset="0.363281"/><stop stop-opacity="1" stop-color="rgb(43.47229%, 100%, 6.686401%)" offset="0.367188"/><stop stop-opacity="1" stop-color="rgb(44.181824%, 100%, 6.599426%)" offset="0.371094"/><stop stop-opacity="1" stop-color="rgb(44.892883%, 100%, 6.512451%)" offset="0.375"/><stop stop-opacity="1" stop-color="rgb(45.603943%, 100%, 6.425476%)" offset="0.378906"/><stop stop-opacity="1" stop-color="rgb(46.315002%, 100%, 6.338501%)" offset="0.382812"/><stop stop-opacity="1" stop-color="rgb(47.026062%, 100%, 6.251526%)" offset="0.386719"/><stop stop-opacity="1" stop-color="rgb(47.737122%, 100%, 6.164551%)" offset="0.390625"/><stop stop-opacity="1" stop-color="rgb(48.448181%, 100%, 6.07605%)" offset="0.394531"/><stop stop-opacity="1" stop-color="rgb(49.159241%, 100%, 5.989075%)" offset="0.398438"/><stop stop-opacity="1" stop-color="rgb(49.8703%, 100%, 5.9021%)" offset="0.402344"/><stop stop-opacity="1" stop-color="rgb(50.58136%, 100%, 5.815125%)" offset="0.40625"/><stop stop-opacity="1" stop-color="rgb(51.292419%, 100%, 5.728149%)" offset="0.410156"/><stop stop-opacity="1" stop-color="rgb(52.003479%, 100%, 5.641174%)" offset="0.414062"/><stop stop-opacity="1" stop-color="rgb(52.714539%, 100%, 5.554199%)" offset="0.417969"/><stop stop-opacity="1" stop-color="rgb(53.425598%, 100%, 5.467224%)" offset="0.421875"/><stop stop-opacity="1" stop-color="rgb(54.135132%, 100%, 5.380249%)" offset="0.425781"/><stop stop-opacity="1" stop-color="rgb(54.846191%, 100%, 5.293274%)" offset="0.429688"/><stop stop-opacity="1" stop-color="rgb(55.557251%, 100%, 5.204773%)" offset="0.433594"/><stop stop-opacity="1" stop-color="rgb(56.268311%, 100%, 5.117798%)" offset="0.4375"/><stop stop-opacity="1" stop-color="rgb(56.97937%, 100%, 5.030823%)" offset="0.441406"/><stop stop-opacity="1" stop-color="rgb(57.69043%, 100%, 4.943848%)" offset="0.445312"/><stop stop-opacity="1" stop-color="rgb(58.401489%, 100%, 4.856873%)" offset="0.449219"/><stop stop-opacity="1" stop-color="rgb(59.112549%, 100%, 4.769897%)" offset="0.453125"/><stop stop-opacity="1" stop-color="rgb(59.823608%, 100%, 4.682922%)" offset="0.457031"/><stop stop-opacity="1" stop-color="rgb(60.534668%, 100%, 4.595947%)" offset="0.460938"/><stop stop-opacity="1" stop-color="rgb(61.245728%, 100%, 4.508972%)" offset="0.464844"/><stop stop-opacity="1" stop-color="rgb(61.956787%, 100%, 4.421997%)" offset="0.46875"/><stop stop-opacity="1" stop-color="rgb(62.667847%, 100%, 4.333496%)" offset="0.472656"/><stop stop-opacity="1" stop-color="rgb(63.378906%, 100%, 4.246521%)" offset="0.476562"/><stop stop-opacity="1" stop-color="rgb(64.089966%, 100%, 4.159546%)" offset="0.480469"/><stop stop-opacity="1" stop-color="rgb(64.801025%, 100%, 4.072571%)" offset="0.484375"/><stop stop-opacity="1" stop-color="rgb(65.510559%, 100%, 3.985596%)" offset="0.488281"/><stop stop-opacity="1" stop-color="rgb(66.221619%, 100%, 3.898621%)" offset="0.492188"/><stop stop-opacity="1" stop-color="rgb(66.932678%, 100%, 3.811646%)" offset="0.496094"/><stop stop-opacity="1" stop-color="rgb(67.643738%, 100%, 3.72467%)" offset="0.5"/><stop stop-opacity="1" stop-color="rgb(68.354797%, 100%, 3.637695%)" offset="0.503906"/><stop stop-opacity="1" stop-color="rgb(69.065857%, 100%, 3.55072%)" offset="0.507812"/><stop stop-opacity="1" stop-color="rgb(69.776917%, 100%, 3.462219%)" offset="0.511719"/><stop stop-opacity="1" stop-color="rgb(70.487976%, 100%, 3.375244%)" offset="0.515625"/><stop stop-opacity="1" stop-color="rgb(71.199036%, 100%, 3.288269%)" offset="0.519531"/><stop stop-opacity="1" stop-color="rgb(71.910095%, 100%, 3.201294%)" offset="0.523438"/><stop stop-opacity="1" stop-color="rgb(72.621155%, 100%, 3.114319%)" offset="0.527344"/><stop stop-opacity="1" stop-color="rgb(73.332214%, 100%, 3.027344%)" offset="0.53125"/><stop stop-opacity="1" stop-color="rgb(74.043274%, 100%, 2.940369%)" offset="0.535156"/><stop stop-opacity="1" stop-color="rgb(74.754333%, 100%, 2.853394%)" offset="0.539062"/><stop stop-opacity="1" stop-color="rgb(75.465393%, 100%, 2.764893%)" offset="0.542969"/><stop stop-opacity="1" stop-color="rgb(76.176453%, 100%, 2.677917%)" offset="0.546875"/><stop stop-opacity="1" stop-color="rgb(76.885986%, 100%, 2.590942%)" offset="0.550781"/><stop stop-opacity="1" stop-color="rgb(77.597046%, 100%, 2.503967%)" offset="0.554688"/><stop stop-opacity="1" stop-color="rgb(78.308105%, 100%, 2.416992%)" offset="0.558594"/><stop stop-opacity="1" stop-color="rgb(79.019165%, 100%, 2.330017%)" offset="0.5625"/><stop stop-opacity="1" stop-color="rgb(79.730225%, 100%, 2.243042%)" offset="0.566406"/><stop stop-opacity="1" stop-color="rgb(80.441284%, 100%, 2.156067%)" offset="0.570312"/><stop stop-opacity="1" stop-color="rgb(81.152344%, 100%, 2.069092%)" offset="0.574219"/><stop stop-opacity="1" stop-color="rgb(81.863403%, 100%, 1.982117%)" offset="0.578125"/><stop stop-opacity="1" stop-color="rgb(82.574463%, 100%, 1.893616%)" offset="0.582031"/><stop stop-opacity="1" stop-color="rgb(83.285522%, 100%, 1.806641%)" offset="0.585938"/><stop stop-opacity="1" stop-color="rgb(83.996582%, 100%, 1.719666%)" offset="0.589844"/><stop stop-opacity="1" stop-color="rgb(84.707642%, 100%, 1.63269%)" offset="0.59375"/><stop stop-opacity="1" stop-color="rgb(85.418701%, 100%, 1.545715%)" offset="0.597656"/><stop stop-opacity="1" stop-color="rgb(86.129761%, 100%, 1.45874%)" offset="0.601562"/><stop stop-opacity="1" stop-color="rgb(86.84082%, 100%, 1.371765%)" offset="0.605469"/><stop stop-opacity="1" stop-color="rgb(87.55188%, 100%, 1.28479%)" offset="0.609375"/><stop stop-opacity="1" stop-color="rgb(88.261414%, 100%, 1.197815%)" offset="0.613281"/><stop stop-opacity="1" stop-color="rgb(88.972473%, 100%, 1.11084%)" offset="0.617188"/><stop stop-opacity="1" stop-color="rgb(89.683533%, 100%, 1.022339%)" offset="0.621094"/><stop stop-opacity="1" stop-color="rgb(90.394592%, 100%, 0.935364%)" offset="0.625"/><stop stop-opacity="1" stop-color="rgb(91.105652%, 100%, 0.848389%)" offset="0.628906"/><stop stop-opacity="1" stop-color="rgb(91.816711%, 100%, 0.761414%)" offset="0.632812"/><stop stop-opacity="1" stop-color="rgb(92.527771%, 100%, 0.674438%)" offset="0.636719"/><stop stop-opacity="1" stop-color="rgb(93.238831%, 100%, 0.587463%)" offset="0.640625"/><stop stop-opacity="1" stop-color="rgb(93.94989%, 100%, 0.500488%)" offset="0.644531"/><stop stop-opacity="1" stop-color="rgb(94.66095%, 100%, 0.413513%)" offset="0.648438"/><stop stop-opacity="1" stop-color="rgb(95.372009%, 100%, 0.326538%)" offset="0.652344"/><stop stop-opacity="1" stop-color="rgb(96.083069%, 100%, 0.239563%)" offset="0.65625"/><stop stop-opacity="1" stop-color="rgb(96.794128%, 100%, 0.151062%)" offset="0.660156"/><stop stop-opacity="1" stop-color="rgb(97.505188%, 100%, 0.0640869%)" offset="0.664062"/><stop stop-opacity="1" stop-color="rgb(97.78595%, 99.853516%, 0.0320435%)" offset="0.667969"/><stop stop-opacity="1" stop-color="rgb(98.068237%, 99.707031%, 0%)" offset="0.671875"/><stop stop-opacity="1" stop-color="rgb(98.091125%, 99.472046%, 0%)" offset="0.675781"/><stop stop-opacity="1" stop-color="rgb(98.114014%, 99.237061%, 0%)" offset="0.679688"/><stop stop-opacity="1" stop-color="rgb(98.136902%, 99.002075%, 0%)" offset="0.683594"/><stop stop-opacity="1" stop-color="rgb(98.15979%, 98.768616%, 0%)" offset="0.6875"/><stop stop-opacity="1" stop-color="rgb(98.182678%, 98.53363%, 0%)" offset="0.691406"/><stop stop-opacity="1" stop-color="rgb(98.205566%, 98.298645%, 0%)" offset="0.695312"/><stop stop-opacity="1" stop-color="rgb(98.228455%, 98.06366%, 0%)" offset="0.699219"/><stop stop-opacity="1" stop-color="rgb(98.251343%, 97.8302%, 0%)" offset="0.703125"/><stop stop-opacity="1" stop-color="rgb(98.274231%, 97.595215%, 0%)" offset="0.707031"/><stop stop-opacity="1" stop-color="rgb(98.297119%, 97.360229%, 0%)" offset="0.710938"/><stop stop-opacity="1" stop-color="rgb(98.320007%, 97.125244%, 0%)" offset="0.714844"/><stop stop-opacity="1" stop-color="rgb(98.344421%, 96.891785%, 0%)" offset="0.71875"/><stop stop-opacity="1" stop-color="rgb(98.36731%, 96.656799%, 0%)" offset="0.722656"/><stop stop-opacity="1" stop-color="rgb(98.390198%, 96.421814%, 0%)" offset="0.726562"/><stop stop-opacity="1" stop-color="rgb(98.413086%, 96.186829%, 0%)" offset="0.730469"/><stop stop-opacity="1" stop-color="rgb(98.435974%, 95.953369%, 0%)" offset="0.734375"/><stop stop-opacity="1" stop-color="rgb(98.458862%, 95.718384%, 0%)" offset="0.738281"/><stop stop-opacity="1" stop-color="rgb(98.48175%, 95.483398%, 0%)" offset="0.742188"/><stop stop-opacity="1" stop-color="rgb(98.504639%, 95.248413%, 0%)" offset="0.746094"/><stop stop-opacity="1" stop-color="rgb(98.527527%, 95.014954%, 0%)" offset="0.75"/><stop stop-opacity="1" stop-color="rgb(98.550415%, 94.779968%, 0%)" offset="0.753906"/><stop stop-opacity="1" stop-color="rgb(98.573303%, 94.544983%, 0%)" offset="0.757812"/><stop stop-opacity="1" stop-color="rgb(98.596191%, 94.309998%, 0%)" offset="0.761719"/><stop stop-opacity="1" stop-color="rgb(98.61908%, 94.076538%, 0%)" offset="0.765625"/><stop stop-opacity="1" stop-color="rgb(98.641968%, 93.841553%, 0%)" offset="0.769531"/><stop stop-opacity="1" stop-color="rgb(98.666382%, 93.606567%, 0%)" offset="0.773438"/><stop stop-opacity="1" stop-color="rgb(98.68927%, 93.371582%, 0%)" offset="0.777344"/><stop stop-opacity="1" stop-color="rgb(98.712158%, 93.138123%, 0%)" offset="0.78125"/><stop stop-opacity="1" stop-color="rgb(98.735046%, 92.903137%, 0%)" offset="0.785156"/><stop stop-opacity="1" stop-color="rgb(98.757935%, 92.668152%, 0%)" offset="0.789062"/><stop stop-opacity="1" stop-color="rgb(98.780823%, 92.433167%, 0%)" offset="0.792969"/><stop stop-opacity="1" stop-color="rgb(98.803711%, 92.198181%, 0%)" offset="0.796875"/><stop stop-opacity="1" stop-color="rgb(98.826599%, 91.963196%, 0%)" offset="0.800781"/><stop stop-opacity="1" stop-color="rgb(98.849487%, 91.729736%, 0%)" offset="0.804688"/><stop stop-opacity="1" stop-color="rgb(98.872375%, 91.494751%, 0%)" offset="0.808594"/><stop stop-opacity="1" stop-color="rgb(98.895264%, 91.259766%, 0%)" offset="0.8125"/><stop stop-opacity="1" stop-color="rgb(98.918152%, 91.02478%, 0%)" offset="0.816406"/><stop stop-opacity="1" stop-color="rgb(98.94104%, 90.791321%, 0%)" offset="0.820312"/><stop stop-opacity="1" stop-color="rgb(98.963928%, 90.556335%, 0%)" offset="0.824219"/><stop stop-opacity="1" stop-color="rgb(98.988342%, 90.32135%, 0%)" offset="0.828125"/><stop stop-opacity="1" stop-color="rgb(99.01123%, 90.086365%, 0%)" offset="0.832031"/><stop stop-opacity="1" stop-color="rgb(99.034119%, 89.852905%, 0%)" offset="0.835938"/><stop stop-opacity="1" stop-color="rgb(99.057007%, 89.61792%, 0%)" offset="0.839844"/><stop stop-opacity="1" stop-color="rgb(99.079895%, 89.382935%, 0%)" offset="0.84375"/><stop stop-opacity="1" stop-color="rgb(99.102783%, 89.147949%, 0%)" offset="0.847656"/><stop stop-opacity="1" stop-color="rgb(99.125671%, 88.91449%, 0%)" offset="0.851562"/><stop stop-opacity="1" stop-color="rgb(99.14856%, 88.679504%, 0%)" offset="0.855469"/><stop stop-opacity="1" stop-color="rgb(99.171448%, 88.444519%, 0%)" offset="0.859375"/><stop stop-opacity="1" stop-color="rgb(99.194336%, 88.209534%, 0%)" offset="0.863281"/><stop stop-opacity="1" stop-color="rgb(99.217224%, 87.976074%, 0%)" offset="0.867188"/><stop stop-opacity="1" stop-color="rgb(99.240112%, 87.741089%, 0%)" offset="0.871094"/><stop stop-opacity="1" stop-color="rgb(99.263%, 87.506104%, 0%)" offset="0.875"/><stop stop-opacity="1" stop-color="rgb(99.285889%, 87.271118%, 0%)" offset="0.878906"/><stop stop-opacity="1" stop-color="rgb(99.308777%, 87.037659%, 0%)" offset="0.882812"/><stop stop-opacity="1" stop-color="rgb(99.331665%, 86.802673%, 0%)" offset="0.886719"/><stop stop-opacity="1" stop-color="rgb(99.356079%, 86.567688%, 0%)" offset="0.890625"/><stop stop-opacity="1" stop-color="rgb(99.378967%, 86.332703%, 0%)" offset="0.894531"/><stop stop-opacity="1" stop-color="rgb(99.401855%, 86.099243%, 0%)" offset="0.898438"/><stop stop-opacity="1" stop-color="rgb(99.424744%, 85.864258%, 0%)" offset="0.902344"/><stop stop-opacity="1" stop-color="rgb(99.447632%, 85.629272%, 0%)" offset="0.90625"/><stop stop-opacity="1" stop-color="rgb(99.47052%, 85.394287%, 0%)" offset="0.910156"/><stop stop-opacity="1" stop-color="rgb(99.493408%, 85.160828%, 0%)" offset="0.914062"/><stop stop-opacity="1" stop-color="rgb(99.516296%, 84.925842%, 0%)" offset="0.917969"/><stop stop-opacity="1" stop-color="rgb(99.539185%, 84.690857%, 0%)" offset="0.921875"/><stop stop-opacity="1" stop-color="rgb(99.562073%, 84.455872%, 0%)" offset="0.925781"/><stop stop-opacity="1" stop-color="rgb(99.584961%, 84.222412%, 0%)" offset="0.929688"/><stop stop-opacity="1" stop-color="rgb(99.607849%, 83.987427%, 0%)" offset="0.933594"/><stop stop-opacity="1" stop-color="rgb(99.630737%, 83.752441%, 0%)" offset="0.9375"/><stop stop-opacity="1" stop-color="rgb(99.653625%, 83.517456%, 0%)" offset="0.941406"/><stop stop-opacity="1" stop-color="rgb(99.67804%, 83.283997%, 0%)" offset="0.945312"/><stop stop-opacity="1" stop-color="rgb(99.700928%, 83.049011%, 0%)" offset="0.949219"/><stop stop-opacity="1" stop-color="rgb(99.723816%, 82.814026%, 0%)" offset="0.953125"/><stop stop-opacity="1" stop-color="rgb(99.746704%, 82.579041%, 0%)" offset="0.957031"/><stop stop-opacity="1" stop-color="rgb(99.769592%, 82.345581%, 0%)" offset="0.960938"/><stop stop-opacity="1" stop-color="rgb(99.79248%, 82.110596%, 0%)" offset="0.964844"/><stop stop-opacity="1" stop-color="rgb(99.815369%, 81.87561%, 0%)" offset="0.96875"/><stop stop-opacity="1" stop-color="rgb(99.838257%, 81.640625%, 0%)" offset="0.972656"/><stop stop-opacity="1" stop-color="rgb(99.861145%, 81.407166%, 0%)" offset="0.976562"/><stop stop-opacity="1" stop-color="rgb(99.884033%, 81.17218%, 0%)" offset="0.980469"/><stop stop-opacity="1" stop-color="rgb(99.906921%, 80.937195%, 0%)" offset="0.984375"/><stop stop-opacity="1" stop-color="rgb(99.92981%, 80.702209%, 0%)" offset="0.988281"/><stop stop-opacity="1" stop-color="rgb(99.952698%, 80.46875%, 0%)" offset="0.992188"/><stop stop-opacity="1" stop-color="rgb(99.975586%, 80.233765%, 0%)" offset="0.996094"/><stop stop-opacity="1" stop-color="rgb(100%, 79.998779%, 0%)" offset="1"/></linearGradient><clipPath id="3eabe452e5"><rect x="0" width="375" y="0" height="375"/></clipPath><clipPath id="a6aa98d5ab"><path d="M 131.515625 199 L 167 199 L 167 234.273438 L 131.515625 234.273438 Z M 131.515625 199 " clip-rule="nonzero"/></clipPath><clipPath id="5fa1bf114e"><path d="M 131.515625 153 L 213 153 L 213 234.273438 L 131.515625 234.273438 Z M 131.515625 153 " clip-rule="nonzero"/></clipPath><clipPath id="b3da4f88a6"><path d="M 131.515625 107.523438 L 258.265625 107.523438 L 258.265625 234.273438 L 131.515625 234.273438 Z M 131.515625 107.523438 " clip-rule="nonzero"/></clipPath></defs><g clip-path="url(#f0017566e4)"><g transform="matrix(1, 0, 0, 1, 0, 0)"><g clip-path="url(#3eabe452e5)"><g clip-path="url(#cdcd7d5b1f)"><g clip-path="url(#ee58776734)"><rect x="-82.5" fill="url(#c1371e1118)" width="540" height="539.999987" y="-82.499998"/></g></g></g></g></g><path fill="#000000" d="M 214.824219 324.589844 C 188.21875 324.601562 161.777344 327.625 135.339844 330.273438 C 130.707031 330.605469 125.894531 331.578125 121.972656 334.179688 C 130.054688 336.738281 138.410156 333.984375 146.5625 333.246094 C 162.089844 331.394531 177.628906 329.585938 193.25 328.6875 C 225.257812 327.539062 257.566406 326.933594 289.367188 331.308594 C 293.285156 332.050781 297.382812 332.105469 301.21875 330.929688 C 299.109375 329.285156 296.671875 328.128906 294.082031 327.425781 C 267.90625 323.828125 241.214844 324.566406 214.824219 324.589844 Z M 214.824219 324.589844 " fill-opacity="1" fill-rule="nonzero"/><path fill="#000000" d="M 309.175781 271.972656 C 300.878906 261.304688 285.621094 266.125 274.042969 266.589844 C 273.710938 205.117188 333.933594 100.214844 275.058594 53.097656 C 303.804688 93.898438 296.964844 123.8125 289.113281 170.40625 C 284.539062 196.65625 263.117188 242.292969 273.988281 266.597656 C 223.722656 269.632812 172.574219 272.695312 122.984375 263.253906 C 98.035156 252.230469 86.527344 293.1875 98.632812 309.738281 C 116.699219 331.085938 127.460938 295.222656 116.308594 282.097656 C 120.699219 282.8125 125.648438 282.285156 129.414062 279.792969 C 133.265625 289.164062 134.304688 299.9375 131.578125 309.652344 C 124.722656 309.414062 116.421875 312.394531 111.632812 317.378906 C 118.042969 317.597656 124.253906 315.171875 130.339844 313.316406 C 125.789062 328.679688 105.097656 337.464844 92.898438 325.15625 C 48.921875 249.066406 150.417969 121.726562 98.773438 53.246094 C 133.324219 59.792969 168.820312 55.808594 203.769531 57.25 C 224.082031 57.171875 244.449219 57.199219 264.714844 55.730469 C 268.578125 55.476562 272.085938 53.820312 275.484375 52.109375 C 270.464844 49.546875 264.652344 50.867188 259.304688 51.402344 C 203.238281 53.964844 146.523438 53.855469 90.902344 48.902344 C 52.863281 37.535156 50.859375 122.757812 86.84375 117.539062 C 94.125 118.320312 101.121094 118.417969 108.121094 116.113281 C 105.765625 155.949219 41.449219 333.414062 107.660156 336 C 124.917969 336.523438 136.25 319.265625 137.6875 303.628906 C 138.730469 292.3125 135.957031 277.890625 128.53125 268.515625 C 179.976562 278.660156 233.226562 271.085938 285.253906 269.835938 C 289.980469 269.742188 294.578125 268.84375 298.796875 266.675781 C 317.769531 285.792969 315.972656 311.777344 301.292969 332.722656 C 322.667969 324.484375 319.648438 288.109375 309.175781 271.972656 Z M 87.53125 99.671875 C 87.148438 99.695312 86.746094 99.742188 86.335938 99.8125 C 89.402344 94.394531 87.648438 86.429688 83.953125 81.675781 C 84.84375 81.882812 85.742188 82.042969 86.652344 82.082031 C 86.652344 82.082031 86.574219 82.078125 86.574219 82.078125 C 88.316406 82.273438 90.0625 82.027344 91.691406 81.433594 C 93.078125 87.90625 93.078125 94.820312 91.859375 101.292969 C 90.722656 100.203125 89.082031 99.671875 87.53125 99.671875 Z M 82.226562 89.339844 C 82.164062 91.878906 83.527344 95.964844 80.867188 97.480469 C 80.867188 97.480469 80.925781 97.402344 80.925781 97.402344 C 70.175781 93.957031 71.125 70.253906 80.761719 65.96875 C 80.761719 65.96875 80.785156 65.992188 80.785156 65.992188 C 86.902344 66.003906 89.113281 73.46875 90.859375 78.214844 C 87.945312 77.625 84.8125 78.359375 82.460938 80.152344 C 81.570312 79.46875 81.832031 80.054688 81.894531 80.71875 C 81.800781 80.839844 81.71875 80.960938 81.65625 81.097656 C 81.753906 81.121094 81.847656 81.148438 81.945312 81.171875 C 82.1875 83.859375 81.996094 86.640625 82.226562 89.339844 Z M 81.378906 97.25 C 81.402344 97.230469 81.4375 97.222656 81.460938 97.195312 C 81.453125 97.199219 81.449219 97.207031 81.445312 97.210938 C 81.496094 97.183594 81.554688 97.148438 81.605469 97.121094 C 81.519531 97.175781 81.421875 97.222656 81.355469 97.304688 C 81.386719 97.273438 81.410156 97.25 81.4375 97.222656 C 81.421875 97.230469 81.402344 97.242188 81.378906 97.25 Z M 105.449219 114.21875 C 101.289062 112.640625 96.664062 112.804688 92.328125 113.445312 C 101.578125 100.230469 100.359375 67.648438 83.617188 60.945312 C 60.121094 59.890625 63.324219 112.75 91.707031 101.941406 C 79.996094 135.96875 54.546875 83.445312 71.796875 60.703125 C 76.984375 53.257812 85.050781 50.558594 92.996094 55.65625 C 110.617188 69.023438 109.625 95.585938 108.175781 115.601562 C 107.570312 115.09375 105.902344 114.410156 105.449219 114.21875 Z M 115.667969 297.949219 C 113.941406 297.410156 112.683594 297.542969 110.785156 298.351562 C 104.046875 300.144531 104.800781 284.316406 110.515625 284.480469 C 115.132812 286.929688 115.257812 293.175781 115.667969 297.949219 Z M 110.714844 299.332031 C 112.148438 300.246094 113.894531 300.703125 115.574219 300.332031 C 115.507812 301.152344 115.390625 301.96875 115.234375 302.769531 C 113.488281 301.164062 111.015625 300.519531 108.675781 300.835938 C 109.589844 300.453125 110.320312 299.847656 110.714844 299.332031 Z M 129.355469 279.671875 C 122.742188 277.792969 115.449219 277.066406 108.773438 279.050781 C 108.824219 279.089844 108.875 279.125 108.929688 279.164062 C 99.886719 280.714844 96.773438 299.722656 106.972656 301.214844 C 106.394531 301.40625 105.839844 301.652344 105.328125 301.957031 C 107.917969 304.21875 111.894531 305.109375 115.054688 303.542969 C 113.464844 311.359375 106.832031 313.230469 102.59375 306.230469 C 88.785156 286.625 114.253906 245.007812 129.355469 279.671875 Z M 129.355469 279.671875 " fill-opacity="1" fill-rule="nonzero"/><g clip-path="url(#a6aa98d5ab)"><path fill="#000000" d="M 148.808594 199.78125 C 144.003906 199.78125 139.917969 201.464844 136.554688 204.828125 C 133.199219 208.191406 131.515625 212.269531 131.515625 217.074219 C 131.515625 221.875 133.195312 225.957031 136.554688 229.320312 C 139.917969 232.679688 144.003906 234.363281 148.808594 234.363281 C 153.609375 234.363281 157.691406 232.679688 161.050781 229.320312 C 164.414062 225.957031 166.09375 221.875 166.09375 217.074219 C 166.09375 212.269531 164.414062 208.191406 161.050781 204.828125 C 157.691406 201.464844 153.609375 199.78125 148.808594 199.78125 " fill-opacity="1" fill-rule="nonzero"/></g><g clip-path="url(#5fa1bf114e)"><path fill="#000000" d="M 204.949219 200.597656 C 200.894531 191.835938 195.449219 184.058594 188.605469 177.273438 C 181.824219 170.429688 174.046875 164.980469 165.28125 160.929688 C 156.519531 156.878906 147.335938 154.460938 137.726562 153.679688 L 137.28125 153.679688 C 135.71875 153.679688 134.425781 154.191406 133.40625 155.210938 C 132.148438 156.289062 131.515625 157.699219 131.515625 159.441406 L 131.515625 171.601562 C 131.515625 173.101562 132.011719 174.390625 133 175.46875 C 133.996094 176.554688 135.238281 177.15625 136.738281 177.273438 C 150.484375 178.597656 162.234375 184.132812 171.992188 193.882812 C 181.746094 203.640625 187.285156 215.390625 188.605469 229.140625 C 188.726562 230.640625 189.324219 231.886719 190.402344 232.875 C 191.488281 233.867188 192.78125 234.363281 194.28125 234.363281 L 206.433594 234.363281 C 208.175781 234.363281 209.585938 233.734375 210.667969 232.46875 C 211.808594 231.273438 212.320312 229.832031 212.203125 228.148438 C 211.417969 218.546875 209.003906 209.363281 204.949219 200.597656 " fill-opacity="1" fill-rule="nonzero"/></g><g clip-path="url(#b3da4f88a6)"><path fill="#000000" d="M 258.300781 228.332031 C 257.523438 212.597656 253.917969 197.546875 247.496094 183.171875 C 241.074219 168.789062 232.25 156.019531 221.023438 144.855469 C 209.855469 133.628906 197.085938 124.808594 182.710938 118.378906 C 168.332031 111.957031 153.273438 108.359375 137.550781 107.574219 L 137.28125 107.574219 C 135.71875 107.574219 134.398438 108.113281 133.320312 109.195312 C 132.117188 110.277344 131.515625 111.660156 131.515625 113.339844 L 131.515625 126.214844 C 131.515625 127.71875 132.039062 129.023438 133.09375 130.132812 C 134.144531 131.246094 135.417969 131.828125 136.917969 131.886719 C 149.828125 132.667969 162.089844 135.730469 173.703125 141.074219 C 185.320312 146.414062 195.402344 153.367188 203.960938 161.917969 C 212.515625 170.472656 219.460938 180.558594 224.800781 192.175781 C 230.148438 203.792969 233.179688 216.054688 233.894531 228.964844 C 233.960938 230.464844 234.542969 231.734375 235.65625 232.789062 C 236.769531 233.835938 238.101562 234.363281 239.660156 234.363281 L 252.535156 234.363281 C 254.21875 234.363281 255.597656 233.765625 256.679688 232.5625 C 257.878906 231.363281 258.417969 229.949219 258.300781 228.332031 " fill-opacity="1" fill-rule="nonzero"/></g></svg>